HIERARCHY
ROOT hip
{
	OFFSET 0.000000 0.000000 0.000000
	CHANNELS 6 Xposition Yposition Zposition Xrotation Zrotation Yrotation 
	JOINT abdomen
	{
		OFFSET 0.000000 3.422050 0.000000
		CHANNELS 3 Xrotation Zrotation Yrotation 
		JOINT chest
		{
			OFFSET 0.000000 8.486693 -0.684411
			CHANNELS 3 Xrotation Zrotation Yrotation 
			JOINT neck
			{
				OFFSET 0.000000 10.266162 -0.273764
				CHANNELS 3 Xrotation Zrotation Yrotation 
				JOINT head
				{
					OFFSET 0.000000 3.148285 0.000000
					CHANNELS 3 Xrotation Zrotation Yrotation 
					End Site
					{
						OFFSET 0.000000 3.148289 0.000000
					}
				}
			}
			JOINT lCollar
			{
				OFFSET 3.422053 6.707223 -0.821293
				CHANNELS 3 Yrotation Zrotation Xrotation 
				JOINT lShldr
				{
					OFFSET 3.285171 0.000000 0.000000
					CHANNELS 3 Zrotation Yrotation Xrotation 
					JOINT lForeArm
					{
						OFFSET 10.129278 0.000000 0.000000
						CHANNELS 3 Yrotation Zrotation Xrotation 
						JOINT lHand
						{
							OFFSET 8.486692 0.000000 0.000000
							CHANNELS 3 Zrotation Yrotation Xrotation 
							End Site
							{
								OFFSET 4.106464 0.000000 0.000000
							}
						}
					}
				}
			}
			JOINT rCollar
			{
				OFFSET -3.558935 6.707223 -0.821293
				CHANNELS 3 Yrotation Zrotation Xrotation 
				JOINT rShldr
				{
					OFFSET -3.148289 0.000000 0.000000
					CHANNELS 3 Zrotation Yrotation Xrotation 
					JOINT rForeArm
					{
						OFFSET -10.266159 0.000000 0.000000
						CHANNELS 3 Yrotation Zrotation Xrotation 
						JOINT rHand
						{
							OFFSET -8.349810 0.000000 0.000000
							CHANNELS 3 Zrotation Yrotation Xrotation 
							End Site
							{
								OFFSET -4.106464 0.000000 0.000000
							}
						}
					}
				}
			}
		}
	}
	JOINT lThigh
	{
		OFFSET 5.338403 -1.642589 1.368821
		CHANNELS 3 Xrotation Zrotation Yrotation 
		JOINT lShin
		{
			OFFSET -2.053232 -20.121670 0.000000
			CHANNELS 3 Xrotation Zrotation Yrotation 
			JOINT lFoot
			{
				OFFSET 0.000000 -19.300380 -1.231939
				CHANNELS 3 Xrotation Yrotation Zrotation 
				End Site
				{
					OFFSET 0.000000 -2.463878 4.653993
				}
			}
		}
	}
	JOINT rThigh
	{
		OFFSET -5.338403 -1.642589 1.368821
		CHANNELS 3 Xrotation Zrotation Yrotation 
		JOINT rShin
		{
			OFFSET 2.053232 -20.121670 0.000000
			CHANNELS 3 Xrotation Zrotation Yrotation 
			JOINT rFoot
			{
				OFFSET 0.000000 -19.300380 -1.231939
				CHANNELS 3 Xrotation Yrotation Zrotation 
				End Site
				{
					OFFSET 0.000000 -2.463878 4.653993
				}
			}
		}
	}
}
MOTION
Frames: 6
Frame Time: 0.076905
-8.491570 5.402042 -4.622760 -90.001877 0.000000 0.000000 40.302574 -15.557282 -10.192176 30.624929 -0.145198 -19.583775 -6.805409 1.945081 -16.324736 -30.765461 9.393944 29.367294 -36.414207 2.167092 -2.963361 -42.746063 -16.395288 -77.639076 -79.303329 -57.406929 5.993457 49.325397 -18.552950 -1.884463 -35.875042 34.440666 -16.405184 29.144903 -14.993292 53.890091 80.515633 -44.487270 76.065788 -5.406386 8.548105 6.675608 -57.335766 11.580354 25.391407 73.479782 9.214549 -1.809289 26.364834 -12.721964 3.462890 -61.850300 -68.719360 -2.253705 103.189476 -7.096720 -3.018859 66.135498 31.531818 -66.503891 
-8.491570 5.402042 -4.622760 -90.001877 0.000000 0.000000 40.302574 -15.557282 -10.192176 30.275040 -0.145220 -19.583736 -7.331306 1.945070 -16.324675 -29.145163 9.393896 29.367256 -36.413548 1.864090 -2.723011 -42.746063 -16.395288 -77.639076 -79.303329 -57.406929 5.993457 49.325397 -18.552950 -1.884463 -35.875042 34.440666 -16.405184 29.144903 -14.993292 53.890091 80.515633 -44.487270 76.065788 -5.209567 8.668665 6.870772 -57.335766 11.580354 25.391407 73.479782 9.214549 -1.809289 26.364834 -12.721964 3.462890 -61.857384 -68.585098 -2.144758 103.189476 -7.096720 -3.018859 66.061066 31.609402 -66.327354 
-8.491570 5.402042 -4.622760 -90.001877 0.000000 0.000000 40.302574 -15.557282 -10.192176 29.925087 -0.145242 -19.583691 -7.857366 1.945059 -16.324610 -27.519924 9.393850 29.367214 -36.411633 1.561040 -2.482653 -42.746063 -16.395288 -77.639076 -79.303329 -57.406929 5.993457 49.325397 -18.552950 -1.884463 -35.875042 34.440666 -16.405184 29.144903 -14.993292 53.890091 80.515633 -44.487270 76.065788 -5.012251 8.788575 7.066440 -57.335766 11.580354 25.391407 73.479782 9.214549 -1.809289 26.364834 -12.721964 3.462890 -61.863735 -68.450844 -2.036502 103.189476 -7.096720 -3.018859 65.986267 31.686789 -66.150505 
-8.491570 5.402042 -4.622760 -90.001877 0.000000 0.000000 40.302574 -15.557282 -10.192176 29.575098 -0.145263 -19.583652 -8.383573 1.945048 -16.324547 -25.890387 9.393807 29.367180 -36.408440 1.257951 -2.242277 -42.746063 -16.395288 -77.639076 -79.303329 -57.406929 5.993457 49.325397 -18.552950 -1.884463 -35.875042 34.440666 -16.405184 29.144903 -14.993292 53.890091 80.515633 -44.487270 76.065788 -4.814441 8.907826 7.262602 -57.335766 11.580354 25.391407 73.479782 9.214549 -1.809289 26.364834 -12.721964 3.462890 -61.869350 -68.316536 -1.928916 103.189476 -7.096720 -3.018859 65.911118 31.763977 -65.973389 
-8.491570 5.402042 -4.622760 -90.001877 0.000000 0.000000 40.302574 -15.557282 -10.192176 29.225069 -0.145284 -19.583611 -8.909899 1.945038 -16.324482 -24.257179 9.393761 29.367130 -36.403973 0.954837 -2.001876 -42.746063 -16.395288 -77.639076 -79.303329 -57.406929 5.993457 49.325397 -18.552950 -1.884463 -35.875042 34.440666 -16.405184 29.144903 -14.993292 53.890091 80.515633 -44.487270 76.065781 -4.616138 9.026415 7.459260 -57.335766 11.580354 25.391407 73.479782 9.214549 -1.809289 26.364834 -12.721964 3.462890 -61.874249 -68.182236 -1.821988 103.189476 -7.096720 -3.018859 65.835640 31.840977 -65.796021 
-8.491570 5.402042 -4.622760 -90.001877 0.000000 0.000000 40.302574 -15.557282 -10.192176 28.874998 -0.145304 -19.583565 -9.436330 1.945029 -16.324421 -22.620979 9.393720 29.367092 -36.398239 0.651710 -1.761442 -42.746063 -16.395288 -77.639076 -79.303329 -57.406929 5.993457 49.325397 -18.552950 -1.884463 -35.875042 34.440666 -16.405182 29.144903 -14.993292 53.890091 80.515633 -44.487270 76.065788 -4.417348 9.144341 7.656409 -57.335766 11.580354 25.391407 73.479782 9.214549 -1.809289 26.364834 -12.721964 3.462890 -61.878460 -68.047935 -1.715710 103.189476 -7.096720 -3.018859 65.759819 31.917786 -65.618378 
